{
  "accessors": [
    {
      "bufferView": 2,
      "componentType": 5126,
      "count": 824,
      "max": [
        3.5426149368286133,
        5.150743007659912,
        4.472811222076416
      ],
      "min": [
        -4.8569111824035645,
        -7.325771808624268,
        -1.07492196559906
      ],
      "type": "VEC3"
    },
    {
      "bufferView": 2,
      "byteOffset": 9888,
      "componentType": 5126,
      "count": 824,
      "max": [
        1.0,
        1.0,
        1.0
      ],
      "min": [
        -0.9890692830085754,
        -1.0,
        -1.0
      ],
      "type": "VEC3"
    },
    {
      "bufferView": 3,
      "componentType": 5126,
      "count": 824,
      "max": [
        1.0,
        1.0,
        1.0,
        1.0
      ],
      "min": [
        -1.0,
        -0.9942082762718201,
        -1.0,
        -1.0
      ],
      "type": "VEC4"
    },
    {
      "bufferView": 1,
      "componentType": 5126,
      "count": 824,
      "max": [
        2.9807660579681396,
        1.930040955543518
      ],
      "min": [
        0.07077900320291519,
        0.020831000059843063
      ],
      "type": "VEC2"
    },
    {
      "bufferView": 0,
      "componentType": 5125,
      "count": 2097,
      "type": "SCALAR"
    },
    {
      "bufferView": 2,
      "byteOffset": 19776,
      "componentType": 5126,
      "count": 66,
      "max": [
        3.247870922088623,
        5.129086017608643,
        1.7504199743270874
      ],
      "min": [
        -4.797276020050049,
        -5.129086017608643,
        -1.0
      ],
      "type": "VEC3"
    },
    {
      "bufferView": 2,
      "byteOffset": 20568,
      "componentType": 5126,
      "count": 66,
      "max": [
        0.0025166175328195095,
        1.0,
        0.7622151970863342
      ],
      "min": [
        -0.36719146370887756,
        -1.0,
        -1.0
      ],
      "type": "VEC3"
    },
    {
      "bufferView": 1,
      "byteOffset": 6592,
      "componentType": 5126,
      "count": 66,
      "max": [
        0.0,
        0.0
      ],
      "min": [
        0.0,
        0.0
      ],
      "type": "VEC2"
    },
    {
      "bufferView": 0,
      "byteOffset": 8388,
      "componentType": 5125,
      "count": 105,
      "type": "SCALAR"
    },
    {
      "bufferView": 2,
      "byteOffset": 21360,
      "componentType": 5126,
      "count": 32,
      "max": [
        -4.7020721435546875,
        5.129086017608643,
        1.054110050201416
      ],
      "min": [
        -4.799816131591797,
        -3.5983870029449463,
        -1.0
      ],
      "type": "VEC3"
    },
    {
      "bufferView": 2,
      "byteOffset": 21744,
      "componentType": 5126,
      "count": 32,
      "max": [
        0.00040499999886378646,
        1.0,
        0.9009134769439697
      ],
      "min": [
        -0.43485599756240845,
        -0.0019239999819546938,
        -1.0
      ],
      "type": "VEC3"
    },
    {
      "bufferView": 1,
      "byteOffset": 7120,
      "componentType": 5126,
      "count": 32,
      "max": [
        0.0,
        0.0
      ],
      "min": [
        0.0,
        0.0
      ],
      "type": "VEC2"
    },
    {
      "bufferView": 0,
      "byteOffset": 8808,
      "componentType": 5125,
      "count": 60,
      "type": "SCALAR"
    },
    {
      "bufferView": 2,
      "byteOffset": 22128,
      "componentType": 5126,
      "count": 9879,
      "max": [
        3.845499038696289,
        5.3324408531188965,
        4.782925128936768
      ],
      "min": [
        -5.318473815917969,
        -7.332060813903809,
        -1.1511770486831665
      ],
      "type": "VEC3"
    },
    {
      "bufferView": 2,
      "byteOffset": 140676,
      "componentType": 5126,
      "count": 9879,
      "max": [
        1.0,
        1.0,
        1.0
      ],
      "min": [
        -1.0,
        -1.0,
        -1.0
      ],
      "type": "VEC3"
    },
    {
      "bufferView": 3,
      "byteOffset": 13184,
      "componentType": 5126,
      "count": 9879,
      "max": [
        1.0,
        1.0,
        1.0,
        1.0
      ],
      "min": [
        -1.0,
        -1.0,
        -1.0,
        -1.0
      ],
      "type": "VEC4"
    },
    {
      "bufferView": 1,
      "byteOffset": 7376,
      "componentType": 5126,
      "count": 9879,
      "max": [
        2.992885112762451,
        1.9300400018692017
      ],
      "min": [
        0.01475599966943264,
        0.011594000272452831
      ],
      "type": "VEC2"
    },
    {
      "bufferView": 0,
      "byteOffset": 9048,
      "componentType": 5125,
      "count": 31086,
      "type": "SCALAR"
    },
    {
      "bufferView": 2,
      "byteOffset": 259224,
      "componentType": 5126,
      "count": 9843,
      "max": [
        3.845499038696289,
        5.244594097137451,
        4.5023908615112305
      ],
      "min": [
        -5.318473815917969,
        -7.331439018249512,
        -1.1511770486831665
      ],
      "type": "VEC3"
    },
    {
      "bufferView": 2,
      "byteOffset": 377340,
      "componentType": 5126,
      "count": 9843,
      "max": [
        1.0,
        1.0,
        1.0
      ],
      "min": [
        -1.0,
        -1.0,
        -1.0
      ],
      "type": "VEC3"
    },
    {
      "bufferView": 3,
      "byteOffset": 171248,
      "componentType": 5126,
      "count": 9843,
      "max": [
        1.0,
        1.0,
        1.0,
        1.0
      ],
      "min": [
        -1.0,
        -1.0,
        -1.0,
        -1.0
      ],
      "type": "VEC4"
    },
    {
      "bufferView": 1,
      "byteOffset": 86408,
      "componentType": 5126,
      "count": 9843,
      "max": [
        2.980726957321167,
        1.9300400018692017
      ],
      "min": [
        0.03882500156760216,
        0.011680000461637974
      ],
      "type": "VEC2"
    },
    {
      "bufferView": 0,
      "byteOffset": 133392,
      "componentType": 5125,
      "count": 23715,
      "type": "SCALAR"
    },
    {
      "bufferView": 2,
      "byteOffset": 495456,
      "componentType": 5126,
      "count": 3191,
      "max": [
        3.9518179893493652,
        5.244594097137451,
        1.086351990699768
      ],
      "min": [
        -5.422665119171143,
        -5.129086017608643,
        -1.115507960319519
      ],
      "type": "VEC3"
    },
    {
      "bufferView": 2,
      "byteOffset": 533748,
      "componentType": 5126,
      "count": 3191,
      "max": [
        1.0,
        1.0,
        1.0
      ],
      "min": [
        -1.0,
        -1.0,
        -1.0
      ],
      "type": "VEC3"
    },
    {
      "bufferView": 3,
      "byteOffset": 328736,
      "componentType": 5126,
      "count": 3191,
      "max": [
        1.0,
        1.0,
        1.0,
        1.0
      ],
      "min": [
        -1.0,
        -1.0,
        -1.0,
        -1.0
      ],
      "type": "VEC4"
    },
    {
      "bufferView": 1,
      "byteOffset": 165152,
      "componentType": 5126,
      "count": 3191,
      "max": [
        2.9807660579681396,
        1.618973970413208
      ],
      "min": [
        0.01475599966943264,
        0.028893999755382538
      ],
      "type": "VEC2"
    },
    {
      "bufferView": 0,
      "byteOffset": 228252,
      "componentType": 5125,
      "count": 11385,
      "type": "SCALAR"
    }
  ],
  "asset": {
    "extras": {
      "author": "Irene Kurbel (https://sketchfab.com/irekur)",
      "license": "CC-BY-4.0 (http://creativecommons.org/licenses/by/4.0/)",
      "source": "https://sketchfab.com/3d-models/magic-book-17901f0e9323435cb3d8092b3a808618",
      "title": "Magic Book"
    },
    "generator": "Sketchfab-12.68.0",
    "version": "2.0"
  },
  "bufferViews": [
    {
      "buffer": 0,
      "byteLength": 273792,
      "name": "floatBufferViews",
      "target": 34963
    },
    {
      "buffer": 0,
      "byteLength": 190680,
      "byteOffset": 273792,
      "byteStride": 8,
      "name": "floatBufferViews",
      "target": 34962
    },
    {
      "buffer": 0,
      "byteLength": 572040,
      "byteOffset": 464472,
      "byteStride": 12,
      "name": "floatBufferViews",
      "target": 34962
    },
    {
      "buffer": 0,
      "byteLength": 379792,
      "byteOffset": 1036512,
      "byteStride": 16,
      "name": "floatBufferViews",
      "target": 34962
    }
  ],
  "buffers": [
    {
      "byteLength": 1416304,
      "uri": "scene.bin"
    }
  ],
  "extensionsUsed": [
    "KHR_texture_transform"
  ],
  "images": [
    {
      "uri": "textures/aiStandardSurface1SG_baseColor.png"
    },
    {
      "uri": "textures/aiStandardSurface1SG_metallicRoughness.png"
    },
    {
      "uri": "textures/aiStandardSurface1SG_normal.png"
    }
  ],
  "materials": [
    {
      "doubleSided": true,
      "name": "aiStandardSurface1SG",
      "normalTexture": {
        "extensions": {
          "KHR_texture_transform": {
            "offset": [
              0.002,
              0.002
            ],
            "scale": [
              0.32999999999999996,
              0.32999999999999996
            ]
          }
        },
        "index": 2
      },
      "occlusionTexture": {
        "extensions": {
          "KHR_texture_transform": {
            "offset": [
              0.002,
              0.002
            ],
            "scale": [
              0.32999999999999996,
              0.32999999999999996
            ]
          }
        },
        "index": 1
      },
      "pbrMetallicRoughness": {
        "baseColorTexture": {
          "extensions": {
            "KHR_texture_transform": {
              "offset": [
                0.002,
                0.002
              ],
              "scale": [
                0.32999999999999996,
                0.32999999999999996
              ]
            }
          },
          "index": 0
        },
        "metallicRoughnessTexture": {
          "extensions": {
            "KHR_texture_transform": {
              "offset": [
                0.002,
                0.002
              ],
              "scale": [
                0.32999999999999996,
                0.32999999999999996
              ]
            }
          },
          "index": 1
        }
      }
    }
  ],
  "meshes": [
    {
      "name": "Object_0",
      "primitives": [
        {
          "attributes": {
            "NORMAL": 1,
            "POSITION": 0,
            "TANGENT": 2,
            "TEXCOORD_0": 3
          },
          "indices": 4,
          "material": 0,
          "mode": 4
        }
      ]
    },
    {
      "name": "Object_1",
      "primitives": [
        {
          "attributes": {
            "NORMAL": 6,
            "POSITION": 5,
            "TEXCOORD_0": 7
          },
          "indices": 8,
          "material": 0,
          "mode": 4
        }
      ]
    },
    {
      "name": "Object_2",
      "primitives": [
        {
          "attributes": {
            "NORMAL": 10,
            "POSITION": 9,
            "TEXCOORD_0": 11
          },
          "indices": 12,
          "material": 0,
          "mode": 4
        }
      ]
    },
    {
      "name": "Object_3",
      "primitives": [
        {
          "attributes": {
            "NORMAL": 14,
            "POSITION": 13,
            "TANGENT": 15,
            "TEXCOORD_0": 16
          },
          "indices": 17,
          "material": 0,
          "mode": 4
        }
      ]
    },
    {
      "name": "Object_4",
      "primitives": [
        {
          "attributes": {
            "NORMAL": 19,
            "POSITION": 18,
            "TANGENT": 20,
            "TEXCOORD_0": 21
          },
          "indices": 22,
          "material": 0,
          "mode": 4
        }
      ]
    },
    {
      "name": "Object_5",
      "primitives": [
        {
          "attributes": {
            "NORMAL": 24,
            "POSITION": 23,
            "TANGENT": 25,
            "TEXCOORD_0": 26
          },
          "indices": 27,
          "material": 0,
          "mode": 4
        }
      ]
    }
  ],
  "nodes": [
    {
      "children": [
        1
      ],
      "matrix": [
        1.0,
        0.0,
        0.0,
        0.0,
        0.0,
        2.220446049250313e-16,
        -1.0,
        0.0,
        0.0,
        1.0,
        2.220446049250313e-16,
        0.0,
        0.0,
        0.0,
        0.0,
        1.0
      ],
      "name": "Sketchfab_model"
    },
    {
      "children": [
        2,
        3,
        4,
        5,
        6,
        7
      ],
      "name": "Book_Ready.obj.cleaner.materialmerger.gles"
    },
    {
      "mesh": 0,
      "name": "Object_2"
    },
    {
      "mesh": 1,
      "name": "Object_3"
    },
    {
      "mesh": 2,
      "name": "Object_4"
    },
    {
      "mesh": 3,
      "name": "Object_5"
    },
    {
      "mesh": 4,
      "name": "Object_6"
    },
    {
      "mesh": 5,
      "name": "Object_7"
    }
  ],
  "samplers": [
    {
      "magFilter": 9729,
      "minFilter": 9987,
      "wrapS": 10497,
      "wrapT": 10497
    }
  ],
  "scene": 0,
  "scenes": [
    {
      "name": "Sketchfab_Scene",
      "nodes": [
        0
      ]
    }
  ],
  "textures": [
    {
      "sampler": 0,
      "source": 0
    },
    {
      "sampler": 0,
      "source": 1
    },
    {
      "sampler": 0,
      "source": 2
    }
  ]
}
